<svg xmlns="http://www.w3.org/2000/svg" width="1200" height="400" viewBox="0 0 1200 400">
  <defs>
    <filter id="blur8" x="-20%" y="-20%" width="140%" height="140%">
      <feGaussianBlur stdDeviation="18"/>
    </filter>
    <radialGradient id="blue1" cx="20%" cy="35%" r="40%">
      <stop offset="0%" stop-color="#7be2f2" stop-opacity="0.50"/>
      <stop offset="70%" stop-color="#1b3b6b" stop-opacity="0.22"/>
      <stop offset="100%" stop-color="#081523" stop-opacity="0"/>
    </radialGradient>
    <radialGradient id="blue2" cx="78%" cy="60%" r="45%">
      <stop offset="0%" stop-color="#6aa8ff" stop-opacity="0.35"/>
      <stop offset="70%" stop-color="#0a2a4a" stop-opacity="0.2"/>
      <stop offset="100%" stop-color="#081523" stop-opacity="0"/>
    </radialGradient>
    <radialGradient id="blue3" cx="70%" cy="22%" r="35%">
      <stop offset="0%" stop-color="#00ffd0" stop-opacity="0.22"/>
      <stop offset="70%" stop-color="#0d2540" stop-opacity="0.16"/>
      <stop offset="100%" stop-color="#081523" stop-opacity="0"/>
    </radialGradient>
  </defs>
  <rect width="1200" height="400" fill="#0b1b2a"/>
  <g filter="url(#blur8)">
    <rect x="-100" y="-100" width="800" height="500" fill="url(#blue1)"/>
    <rect x="500" y="-50" width="800" height="500" fill="url(#blue3)"/>
    <rect x="350" y="0" width="900" height="500" fill="url(#blue2)"/>
  </g>
  <g opacity="0.95">
    <circle cx="80" cy="40" r="1.1" fill="#ffffff"/>
    <circle cx="160" cy="120" r="1.5" fill="#ffffff"/>
    <circle cx="210" cy="70" r="1.2" fill="#ffffff"/>
    <circle cx="260" cy="180" r="1" fill="#ffffff"/>
    <circle cx="320" cy="60" r="1.4" fill="#ffffff"/>
    <circle cx="380" cy="140" r="1.3" fill="#ffffff"/>
    <circle cx="420" cy="40" r="1.1" fill="#ffffff"/>
    <circle cx="460" cy="220" r="1.6" fill="#ffffff"/>
    <circle cx="520" cy="100" r="1.2" fill="#ffffff"/>
    <circle cx="560" cy="60" r="1.1" fill="#ffffff"/>
    <circle cx="600" cy="160" r="1.3" fill="#ffffff"/>
    <circle cx="650" cy="40" r="1.2" fill="#ffffff"/>
    <circle cx="700" cy="120" r="1.4" fill="#ffffff"/>
    <circle cx="740" cy="80" r="1.1" fill="#ffffff"/>
    <circle cx="780" cy="200" r="1.5" fill="#ffffff"/>
    <circle cx="830" cy="60" r="1.2" fill="#ffffff"/>
    <circle cx="870" cy="140" r="1.1" fill="#ffffff"/>
    <circle cx="920" cy="100" r="1.4" fill="#ffffff"/>
    <circle cx="960" cy="40" r="1.2" fill="#ffffff"/>
    <circle cx="1000" cy="180" r="1.5" fill="#ffffff"/>
    <circle cx="1060" cy="60" r="1.1" fill="#ffffff"/>
    <circle cx="1100" cy="140" r="1.3" fill="#ffffff"/>
  </g>
</svg>
