<svg xmlns="http://www.w3.org/2000/svg" width="1200" height="400" viewBox="0 0 1200 400">
  <defs>
    <filter id="blur8" x="-20%" y="-20%" width="140%" height="140%">
      <feGaussianBlur stdDeviation="18"/>
    </filter>
    <radialGradient id="nebula1" cx="20%" cy="35%" r="40%">
      <stop offset="0%" stop-color="#b992ff" stop-opacity="0.55"/>
      <stop offset="70%" stop-color="#692b9e" stop-opacity="0.18"/>
      <stop offset="100%" stop-color="#120a1d" stop-opacity="0"/>
    </radialGradient>
    <radialGradient id="nebula2" cx="78%" cy="60%" r="45%">
      <stop offset="0%" stop-color="#ff7ef2" stop-opacity="0.25"/>
      <stop offset="70%" stop-color="#2a0e4a" stop-opacity="0.18"/>
      <stop offset="100%" stop-color="#120a1d" stop-opacity="0"/>
    </radialGradient>
    <radialGradient id="nebula3" cx="70%" cy="22%" r="35%">
      <stop offset="0%" stop-color="#9f7bff" stop-opacity="0.35"/>
      <stop offset="70%" stop-color="#2a0e4a" stop-opacity="0.14"/>
      <stop offset="100%" stop-color="#120a1d" stop-opacity="0"/>
    </radialGradient>
  </defs>
  <rect width="1200" height="400" fill="#120a1d"/>
  <g filter="url(#blur8)">
    <rect x="-100" y="-100" width="800" height="500" fill="url(#nebula1)"/>
    <rect x="500" y="-50" width="800" height="500" fill="url(#nebula3)"/>
    <rect x="350" y="0" width="900" height="500" fill="url(#nebula2)"/>
  </g>
  <g opacity="0.95">
    <circle cx="80" cy="40" r="1.1" fill="#fff"/>
    <circle cx="160" cy="120" r="1.5" fill="#fff"/>
    <circle cx="210" cy="70" r="1.2" fill="#fff"/>
    <circle cx="260" cy="180" r="1" fill="#fff"/>
    <circle cx="320" cy="60" r="1.4" fill="#fff"/>
    <circle cx="380" cy="140" r="1.3" fill="#fff"/>
    <circle cx="420" cy="40" r="1.1" fill="#fff"/>
    <circle cx="460" cy="220" r="1.6" fill="#fff"/>
    <circle cx="520" cy="100" r="1.2" fill="#fff"/>
    <circle cx="560" cy="60" r="1.1" fill="#fff"/>
    <circle cx="600" cy="160" r="1.3" fill="#fff"/>
    <circle cx="650" cy="40" r="1.2" fill="#fff"/>
    <circle cx="700" cy="120" r="1.4" fill="#fff"/>
    <circle cx="740" cy="80" r="1.1" fill="#fff"/>
    <circle cx="780" cy="200" r="1.5" fill="#fff"/>
    <circle cx="830" cy="60" r="1.2" fill="#fff"/>
    <circle cx="870" cy="140" r="1.1" fill="#fff"/>
    <circle cx="920" cy="100" r="1.4" fill="#fff"/>
    <circle cx="960" cy="40" r="1.2" fill="#fff"/>
    <circle cx="1000" cy="180" r="1.5" fill="#fff"/>
    <circle cx="1060" cy="60" r="1.1" fill="#fff"/>
    <circle cx="1100" cy="140" r="1.3" fill="#fff"/>
  </g>
</svg>
